# xmcd CD database file
#
# Track frame offsets:
#	150
#	35603
#	61108
#	97560
#	141453
#	162308
#	186239
#
# Disc length: 2723 seconds
#
# Revision: 0
# Processed by: cddbd v1.5.2PL0 Copyright (c) Steve Scherf et al.
# Submitted via: CDex 1.51
#
DISCID=570aa107
DTITLE=Have a Nice Life - Deathconsciousness
DYEAR=2008
DGENRE=Salsa
TTITLE0=A Quick One Before The Eternal Worm Devours Connecticut
TTITLE1=Bloodhail
TTITLE2=The Big Gloom
TTITLE3=Hunter
TTITLE4=Telephony
TTITLE5=Who Would Leave Their Son Out In The Sun?
TTITLE6=There Is No Food
EXTD=YEAR: 2008
EXTT0=
EXTT1=
EXTT2=
EXTT3=
EXTT4=
EXTT5=
EXTT6=
PLAYORDER=
